<?xml version="1.0" encoding="UTF-8"?> <svg xmlns="http://www.w3.org/2000/svg" width="60" height="60" viewBox="0 0 60 60" fill="none"><path d="M38.0775 11.25L28.4525 22.5875C28.2868 22.7825 28.0652 22.9219 27.8177 22.987C27.5702 23.052 27.3087 23.0395 27.0686 22.9512C26.8284 22.8629 26.6211 22.703 26.4747 22.4931C26.3283 22.2832 26.2499 22.0334 26.25 21.7775V10C26.25 9.66848 26.3817 9.35054 26.6161 9.11612C26.8505 8.8817 27.1685 8.75 27.5 8.75C27.8315 8.75 28.1495 8.8817 28.3839 9.11612C28.6183 9.35054 28.75 9.66848 28.75 10V18.375L36.5475 9.19C36.6649 9.05202 36.8109 8.9412 36.9754 8.86523C37.1398 8.78925 37.3188 8.74993 37.5 8.75H50C50.3315 8.75 50.6495 8.8817 50.8839 9.11612C51.1183 9.35054 51.25 9.66848 51.25 10V50C51.25 50.3315 51.1183 50.6495 50.8839 50.8839C50.6495 51.1183 50.3315 51.25 50 51.25H10C9.66848 51.25 9.35054 51.1183 9.11612 50.8839C8.8817 50.6495 8.75 50.3315 8.75 50V42.5C8.74966 42.2056 8.85324 41.9205 9.0425 41.695L16.25 33.12V17.6025C16.25 17.271 16.3817 16.953 16.6161 16.7186C16.8505 16.4842 17.1685 16.3525 17.5 16.3525H22.5C22.8315 16.3525 23.1495 16.4842 23.3839 16.7186C23.6183 16.953 23.75 17.271 23.75 17.6025V27.7175C23.75 28.049 23.6183 28.367 23.3839 28.6014C23.1495 28.8358 22.8315 28.9675 22.5 28.9675C22.1685 28.9675 21.8505 28.8358 21.6161 28.6014C21.3817 28.367 21.25 28.049 21.25 27.7175V18.85H18.75V33.575C18.7498 33.8685 18.6462 34.1526 18.4575 34.3775L11.25 42.955V48.75H48.75V11.25H38.0775ZM41.25 18.75V41.25H43.75V18.75H41.25ZM41.25 16.25H43.75C44.413 16.25 45.0489 16.5134 45.5178 16.9822C45.9866 17.4511 46.25 18.087 46.25 18.75V41.25C46.25 41.913 45.9866 42.5489 45.5178 43.0178C45.0489 43.4866 44.413 43.75 43.75 43.75H41.25C40.587 43.75 39.9511 43.4866 39.4822 43.0178C39.0134 42.5489 38.75 41.913 38.75 41.25V18.75C38.75 18.087 39.0134 17.4511 39.4822 16.9822C39.9511 16.5134 40.587 16.25 41.25 16.25ZM31.25 28.75V41.25H33.75V28.75H31.25ZM31.25 26.25H33.75C34.413 26.25 35.0489 26.5134 35.5178 26.9822C35.9866 27.4511 36.25 28.087 36.25 28.75V41.25C36.25 41.913 35.9866 42.5489 35.5178 43.0178C35.0489 43.4866 34.413 43.75 33.75 43.75H31.25C30.587 43.75 29.9511 43.4866 29.4822 43.0178C29.0134 42.5489 28.75 41.913 28.75 41.25V28.75C28.75 28.087 29.0134 27.4511 29.4822 26.9822C29.9511 26.5134 30.587 26.25 31.25 26.25Z" fill="white"></path></svg> 