<?xml version="1.0" encoding="UTF-8"?> <svg xmlns="http://www.w3.org/2000/svg" width="46" height="46" viewBox="0 0 46 46" fill="none"><g clip-path="url(#clip0_1321_165)"><path fill-rule="evenodd" clip-rule="evenodd" d="M34.9773 25.7025C36.501 22.6176 37.375 19.7282 37.375 17.25C37.375 13.4375 35.8605 9.78118 33.1647 7.08534C30.4688 4.3895 26.8125 2.875 23 2.875C19.1875 2.875 15.5312 4.3895 12.8353 7.08534C10.1395 9.78118 8.625 13.4375 8.625 17.25C8.625 19.7282 9.50188 22.6176 11.0228 25.7025C12.5293 28.7557 14.5705 31.7975 16.6578 34.5288C18.6377 37.1037 20.7549 39.5702 23 41.9175L23.598 41.285C25.622 39.1281 27.539 36.8733 29.3423 34.5288C31.4295 31.7975 33.4708 28.7557 34.9773 25.7025ZM23 46C23 46 40.25 29.6528 40.25 17.25C40.25 12.675 38.4326 8.28741 35.1976 5.05241C31.9626 1.81741 27.575 0 23 0C18.425 0 14.0374 1.81741 10.8024 5.05241C7.56741 8.28741 5.75 12.675 5.75 17.25C5.75 29.6528 23 46 23 46Z" fill="white"></path><path fill-rule="evenodd" clip-rule="evenodd" d="M23 23C24.525 23 25.9875 22.3942 27.0659 21.3159C28.1442 20.2375 28.75 18.775 28.75 17.25C28.75 15.725 28.1442 14.2625 27.0659 13.1841C25.9875 12.1058 24.525 11.5 23 11.5C21.475 11.5 20.0125 12.1058 18.9341 13.1841C17.8558 14.2625 17.25 15.725 17.25 17.25C17.25 18.775 17.8558 20.2375 18.9341 21.3159C20.0125 22.3942 21.475 23 23 23ZM23 25.875C25.2875 25.875 27.4813 24.9663 29.0988 23.3488C30.7163 21.7313 31.625 19.5375 31.625 17.25C31.625 14.9625 30.7163 12.7687 29.0988 11.1512C27.4813 9.5337 25.2875 8.625 23 8.625C20.7125 8.625 18.5187 9.5337 16.9012 11.1512C15.2837 12.7687 14.375 14.9625 14.375 17.25C14.375 19.5375 15.2837 21.7313 16.9012 23.3488C18.5187 24.9663 20.7125 25.875 23 25.875Z" fill="white"></path></g><defs><clipPath id="clip0_1321_165"><rect width="46" height="46" fill="white"></rect></clipPath></defs></svg> 