<?xml version="1.0" encoding="UTF-8"?> <svg xmlns="http://www.w3.org/2000/svg" width="48" height="48" viewBox="0 0 48 48" fill="none"><path d="M9.21683 2.75C7.6972 2.75 6.44678 4.00037 6.44678 5.52003C6.44678 6.71344 7.22241 7.73453 8.28927 8.12223V39.8849C7.2226 40.2709 6.44678 41.2866 6.44678 42.4799C6.44678 43.9995 7.6972 45.25 9.21683 45.25H38.7833C40.3029 45.25 41.5533 43.9995 41.5533 42.4799C41.5533 41.2838 40.7742 40.2652 39.7036 39.8813V8.12404C40.7741 7.73833 41.5533 6.71605 41.5533 5.52003C41.5533 4.00037 40.3029 2.75 38.7833 2.75H9.21683ZM9.21683 4.59968H38.7833C39.3111 4.59968 39.7036 4.99219 39.7036 5.52003C39.7036 6.04786 39.3111 6.44755 38.7833 6.44755H9.21683C8.68896 6.44755 8.28927 6.04786 8.28927 5.52003C8.28927 4.99219 8.68898 4.59968 9.21683 4.59968ZM10.1372 8.2955H14.6108C14.7301 11.0905 15.29 13.9494 16.1934 16.501C16.2097 16.6213 16.2495 16.7373 16.3107 16.8422C16.3188 16.8556 16.3272 16.8688 16.3359 16.8818C16.5979 17.5858 16.8781 18.272 17.1895 18.9156C17.9919 20.5739 18.9505 22.0124 20.0751 23.0698C20.4121 23.3865 20.7699 23.6646 21.1416 23.9072C20.7672 24.156 20.4066 24.443 20.0678 24.7679C18.9446 25.8453 17.9908 27.306 17.1895 28.9888C15.7081 32.0998 14.7686 35.9855 14.6107 39.7117H10.1372L10.1372 8.2955ZM16.6373 8.2955L31.3628 8.33036C31.2449 10.6882 30.8594 13.1411 30.197 15.343C28.548 16.0339 26.4727 15.6965 24.1949 15.26C22.9595 15.0233 21.6643 14.7609 20.3818 14.7276C19.483 14.7021 18.5926 14.8058 17.7309 15.0993C17.1103 12.9501 16.7483 10.5772 16.6373 8.2955ZM33.3893 8.2955H37.8557V39.7116H33.3893C33.2313 35.9739 32.2872 32.078 30.7961 28.9616C29.9926 27.2822 29.0302 25.8263 27.9052 24.7534C27.5707 24.4342 27.2154 24.1527 26.8459 23.907C27.2126 23.6677 27.5652 23.3933 27.898 23.0823C29.0243 22.0294 29.9861 20.6047 30.7907 18.9498C31.1643 18.1815 31.4988 17.3592 31.8013 16.5064C31.9149 16.3525 31.978 16.1671 31.9818 15.9758C32.7816 13.5594 33.2778 10.8995 33.3893 8.2955ZM20.3854 16.5966C21.4438 16.628 22.6104 16.8362 23.8467 17.0731C25.6358 17.416 27.5644 17.8021 29.421 17.4808C29.3257 17.7017 29.2348 17.9269 29.1323 18.1378C28.3994 19.6452 27.531 20.8964 26.6366 21.7325C25.7421 22.5686 24.8597 22.976 23.9892 22.974C23.1187 22.9721 22.2377 22.5604 21.3437 21.7198C20.4497 20.8793 19.5844 19.6217 18.8534 18.1107C18.6596 17.7102 18.4835 17.2869 18.3156 16.8529C18.9438 16.6465 19.6358 16.5739 20.3854 16.5966ZM23.9838 24.822C23.9857 24.822 23.9874 24.822 23.9892 24.822C24.853 24.8201 25.7336 25.2363 26.6294 26.0906C27.5251 26.9449 28.3911 28.218 29.1251 29.7521C30.4667 32.5559 31.1922 36.2397 31.3628 39.6701L30.9063 39.672C30.6803 39.4081 30.4187 39.1273 30.0671 38.7697C29.5496 38.2434 28.9336 37.6618 28.3491 37.1744C28.3474 37.1726 28.3437 37.1762 28.3419 37.1744C27.0995 35.9334 25.9097 35.2469 24.7273 35.0793C23.5433 34.9112 22.4576 35.2888 21.5549 35.8571C19.8252 36.946 18.4856 38.6957 17.1661 39.7099L16.6374 39.7117C16.8017 36.2786 17.5161 32.5932 18.8552 29.781C19.5874 28.2435 20.4557 26.9621 21.351 26.1033C22.2444 25.2462 23.1218 24.8256 23.9838 24.822ZM23.9965 26.7042C23.7527 26.7051 23.5191 26.8024 23.3467 26.9748C23.1743 27.1472 23.0771 27.3807 23.0761 27.6245V28.552C23.0771 28.7958 23.1743 29.0294 23.3467 29.2018C23.5191 29.3742 23.7527 29.4714 23.9965 29.4724C24.2415 29.4733 24.4769 29.3769 24.6508 29.2043C24.8248 29.0317 24.9231 28.7971 24.924 28.552V27.6245C24.9235 27.5032 24.8992 27.3831 24.8523 27.2711C24.8054 27.1592 24.737 27.0576 24.6508 26.9722C24.5647 26.8867 24.4626 26.8191 24.3503 26.7731C24.238 26.7271 24.1178 26.7037 23.9965 26.7042ZM23.9965 30.9053C23.7514 30.9062 23.5168 31.0044 23.3442 31.1784C23.1716 31.3523 23.0752 31.5878 23.0761 31.8328V32.7531C23.0756 32.8745 23.0991 32.9947 23.1451 33.107C23.191 33.2192 23.2587 33.3214 23.3442 33.4076C23.4296 33.4937 23.5312 33.5621 23.6431 33.609C23.7551 33.6558 23.8751 33.6802 23.9965 33.6807C24.1184 33.6811 24.2392 33.6575 24.352 33.611C24.4647 33.5646 24.5672 33.4963 24.6534 33.4101C24.7396 33.3238 24.8079 33.2214 24.8544 33.1087C24.9008 32.9959 24.9245 32.8751 24.924 32.7531V31.8328C24.9245 31.7109 24.9008 31.59 24.8544 31.4773C24.8079 31.3645 24.7396 31.2621 24.6534 31.1759C24.5672 31.0896 24.4647 31.0214 24.352 30.9749C24.2392 30.9285 24.1184 30.9048 23.9965 30.9053ZM23.9802 36.8946C24.1394 36.8833 24.3004 36.8919 24.4674 36.9145C25.1356 37.0092 25.9735 37.4172 27.039 38.4827C27.061 38.5018 27.0839 38.5199 27.1076 38.5369C27.4997 38.8599 27.9264 39.2792 28.3347 39.6774H19.9794C20.8372 38.8398 21.7736 37.9101 22.5437 37.4253C23.0473 37.1082 23.5027 36.9261 23.9802 36.8946ZM9.21684 41.5595H38.7833C39.3111 41.5595 39.7036 41.952 39.7036 42.4799C39.7036 43.0077 39.3111 43.4002 38.7833 43.4002H9.21682C8.68897 43.4002 8.28926 43.0077 8.28926 42.4799C8.28926 41.952 8.68897 41.5595 9.21684 41.5595Z" fill="white"></path></svg> 