<?xml version="1.0" encoding="UTF-8"?> <svg xmlns="http://www.w3.org/2000/svg" width="48" height="48" viewBox="0 0 48 48" fill="none"><path d="M6.2812 45.2625C4.72495 45.2625 3.1687 45.2625 1.62183 45.2625C1.8562 45.4969 2.09058 45.7313 2.32495 45.9657C2.32495 43.0875 2.32495 40.2 2.32495 37.3219C2.32495 31.3782 2.32495 25.425 2.32495 19.4813C2.32495 14.5125 2.32495 9.55317 2.32495 4.58442C2.32495 3.7313 2.32495 2.87817 2.32495 2.03442C2.09058 2.2688 1.8562 2.50317 1.62183 2.73755C3.17808 2.73755 4.73433 2.73755 6.2812 2.73755C6.04683 2.50317 5.81245 2.2688 5.57808 2.03442C5.57808 4.91255 5.57808 7.80005 5.57808 10.6782C5.57808 16.6219 5.57808 22.575 5.57808 28.5188C5.57808 33.4875 5.57808 38.4469 5.57808 43.4157C5.57808 44.2688 5.57808 45.1219 5.57808 45.9657C5.57808 46.875 6.98433 46.875 6.98433 45.9657C6.98433 43.0875 6.98433 40.2 6.98433 37.3219C6.98433 31.3782 6.98433 25.425 6.98433 19.4813C6.98433 14.5125 6.98433 9.55317 6.98433 4.58442C6.98433 3.7313 6.98433 2.87817 6.98433 2.03442C6.98433 1.65005 6.66558 1.3313 6.2812 1.3313C4.72495 1.3313 3.1687 1.3313 1.62183 1.3313C1.23745 1.3313 0.918701 1.65005 0.918701 2.03442C0.918701 4.91255 0.918701 7.80005 0.918701 10.6782C0.918701 16.6219 0.918701 22.575 0.918701 28.5188C0.918701 33.4875 0.918701 38.4469 0.918701 43.4157C0.918701 44.2688 0.918701 45.1219 0.918701 45.9657C0.918701 46.35 1.23745 46.6688 1.62183 46.6688C3.17808 46.6688 4.73433 46.6688 6.2812 46.6688C7.19058 46.6688 7.19058 45.2625 6.2812 45.2625Z" fill="white"></path><path d="M46.3781 45.2625C44.8219 45.2625 43.2656 45.2625 41.7188 45.2625C41.9531 45.4969 42.1875 45.7313 42.4219 45.9657C42.4219 43.0875 42.4219 40.2 42.4219 37.3219C42.4219 31.3782 42.4219 25.425 42.4219 19.4813C42.4219 14.5125 42.4219 9.55317 42.4219 4.58442C42.4219 3.7313 42.4219 2.87817 42.4219 2.03442C42.1875 2.2688 41.9531 2.50317 41.7188 2.73755C43.275 2.73755 44.8313 2.73755 46.3781 2.73755C46.1438 2.50317 45.9094 2.2688 45.675 2.03442C45.675 4.91255 45.675 7.80005 45.675 10.6782C45.675 16.6219 45.675 22.575 45.675 28.5188C45.675 33.4875 45.675 38.4469 45.675 43.4157C45.675 44.2688 45.675 45.1219 45.675 45.9657C45.675 46.875 47.0813 46.875 47.0813 45.9657C47.0813 43.0875 47.0813 40.2 47.0813 37.3219C47.0813 31.3782 47.0813 25.425 47.0813 19.4813C47.0813 14.5125 47.0813 9.55317 47.0813 4.58442C47.0813 3.7313 47.0813 2.87817 47.0813 2.03442C47.0813 1.65005 46.7625 1.3313 46.3781 1.3313C44.8219 1.3313 43.2656 1.3313 41.7188 1.3313C41.3344 1.3313 41.0156 1.65005 41.0156 2.03442C41.0156 4.91255 41.0156 7.80005 41.0156 10.6782C41.0156 16.6219 41.0156 22.575 41.0156 28.5188C41.0156 33.4875 41.0156 38.4469 41.0156 43.4157C41.0156 44.2688 41.0156 45.1219 41.0156 45.9657C41.0156 46.35 41.3344 46.6688 41.7188 46.6688C43.275 46.6688 44.8313 46.6688 46.3781 46.6688C47.2875 46.6688 47.2875 45.2625 46.3781 45.2625Z" fill="white"></path><path d="M6.28115 46.6688C9.64678 46.6688 13.003 46.6688 16.3687 46.6688C22.3312 46.6688 28.2936 46.6688 34.2561 46.6688C36.7405 46.6688 39.2343 46.6688 41.7186 46.6688C42.628 46.6688 42.628 45.2626 41.7186 45.2626C38.353 45.2626 34.9968 45.2626 31.6311 45.2626C25.6686 45.2626 19.7062 45.2626 13.7437 45.2626C11.2593 45.2626 8.76553 45.2626 6.28115 45.2626C5.37178 45.2626 5.37178 46.6688 6.28115 46.6688Z" fill="white"></path><path d="M6.28115 31.9032C9.64678 31.9032 13.003 31.9032 16.3687 31.9032C22.3312 31.9032 28.2936 31.9032 34.2561 31.9032C36.7405 31.9032 39.2343 31.9032 41.7186 31.9032C42.628 31.9032 42.628 30.4969 41.7186 30.4969C38.353 30.4969 34.9968 30.4969 31.6311 30.4969C25.6686 30.4969 19.7062 30.4969 13.7437 30.4969C11.2593 30.4969 8.76553 30.4969 6.28115 30.4969C5.37178 30.4969 5.37178 31.9032 6.28115 31.9032Z" fill="white"></path><path d="M6.28115 15.8438C9.64678 15.8438 13.003 15.8438 16.3687 15.8438C22.3312 15.8438 28.2936 15.8438 34.2561 15.8438C36.7405 15.8438 39.2343 15.8438 41.7186 15.8438C42.628 15.8438 42.628 14.4375 41.7186 14.4375C38.353 14.4375 34.9968 14.4375 31.6311 14.4375C25.6686 14.4375 19.7062 14.4375 13.7437 14.4375C11.2593 14.4375 8.76553 14.4375 6.28115 14.4375C5.37178 14.4375 5.37178 15.8438 6.28115 15.8438Z" fill="white"></path><path d="M10.5281 14.4376C9.1125 14.4376 7.69688 14.4376 6.28125 14.4376C6.51563 14.6719 6.75 14.9063 6.98438 15.1407C6.98438 11.6344 6.98438 8.1282 6.98438 4.62195C6.75 4.85632 6.51563 5.0907 6.28125 5.32507C7.69688 5.32507 9.1125 5.32507 10.5281 5.32507C10.2938 5.0907 10.0594 4.85632 9.825 4.62195C9.825 8.1282 9.825 11.6344 9.825 15.1407C9.825 16.0501 11.2313 16.0501 11.2313 15.1407C11.2313 11.6344 11.2313 8.1282 11.2313 4.62195C11.2313 4.23757 10.9125 3.91882 10.5281 3.91882C9.1125 3.91882 7.69688 3.91882 6.28125 3.91882C5.89688 3.91882 5.57812 4.23757 5.57812 4.62195C5.57812 8.1282 5.57812 11.6344 5.57812 15.1407C5.57812 15.5251 5.89688 15.8438 6.28125 15.8438C7.69688 15.8438 9.1125 15.8438 10.5281 15.8438C11.4375 15.8438 11.4375 14.4376 10.5281 14.4376Z" fill="white"></path><path d="M14.775 14.4376C13.3593 14.4376 11.9437 14.4376 10.5281 14.4376C10.7625 14.6719 10.9968 14.9063 11.2312 15.1407C11.2312 11.6344 11.2312 8.1282 11.2312 4.62195C10.9968 4.85632 10.7625 5.0907 10.5281 5.32507C11.9437 5.32507 13.3593 5.32507 14.775 5.32507C14.5406 5.0907 14.3062 4.85632 14.0718 4.62195C14.0718 8.1282 14.0718 11.6344 14.0718 15.1407C14.0718 16.0501 15.4781 16.0501 15.4781 15.1407C15.4781 11.6344 15.4781 8.1282 15.4781 4.62195C15.4781 4.23757 15.1593 3.91882 14.775 3.91882C13.3593 3.91882 11.9437 3.91882 10.5281 3.91882C10.1437 3.91882 9.82495 4.23757 9.82495 4.62195C9.82495 8.1282 9.82495 11.6344 9.82495 15.1407C9.82495 15.5251 10.1437 15.8438 10.5281 15.8438C11.9437 15.8438 13.3593 15.8438 14.775 15.8438C15.6843 15.8438 15.6843 14.4376 14.775 14.4376Z" fill="white"></path><path d="M34.9406 13.0125C34.9406 13.6875 34.4719 14.2219 33.8344 14.4C33.6187 14.4563 33.375 14.4375 33.15 14.4375C32.2312 14.4375 31.3031 14.4375 30.3844 14.4375C28.6313 14.4375 26.8781 14.4375 25.125 14.4375C25.3594 14.6719 25.5937 14.9063 25.8281 15.1406C25.8281 13.725 25.8281 12.3094 25.8281 10.8938C25.5937 11.1281 25.3594 11.3625 25.125 11.5969C26.85 11.5969 28.575 11.5969 30.2906 11.5969C31.2281 11.5969 32.1656 11.5969 33.1125 11.5969C33.2906 11.5969 33.4687 11.5969 33.6469 11.5969C34.3875 11.625 34.9219 12.3281 34.9406 13.0125C34.9688 13.9219 36.375 13.9219 36.3469 13.0125C36.3 11.3907 35.025 10.1813 33.4125 10.1813C32.55 10.1813 31.6875 10.1813 30.8344 10.1813C28.9312 10.1813 27.0281 10.1813 25.125 10.1813C24.7406 10.1813 24.4219 10.5 24.4219 10.8844C24.4219 12.3 24.4219 13.7156 24.4219 15.1313C24.4219 15.5156 24.7406 15.8344 25.125 15.8344C27.0281 15.8344 28.9312 15.8344 30.8344 15.8344C31.6969 15.8344 32.5594 15.8344 33.4125 15.8344C34.9875 15.8344 36.3469 14.625 36.3469 13.0031C36.3469 12.1125 34.9406 12.1125 34.9406 13.0125Z" fill="white"></path><path d="M34.9406 6.64696C34.9406 8.06258 34.9406 9.47821 34.9406 10.8938C35.175 10.6595 35.4093 10.4251 35.6437 10.1907C33.3093 10.1907 30.9843 10.1907 28.65 10.1907C27.675 10.1907 26.5218 10.397 25.9687 9.38446C25.5187 8.56883 26.1187 7.61258 26.9343 7.38758C27.2156 7.31258 27.5624 7.35008 27.8437 7.35008C30.4406 7.35008 33.0375 7.35008 35.6437 7.35008C36.5531 7.35008 36.5531 5.94383 35.6437 5.94383C33.3093 5.94383 30.9843 5.94383 28.65 5.94383C27.4593 5.94383 26.3812 5.85008 25.3874 6.64696C24.5249 7.33133 24.2624 8.55946 24.5437 9.58133C24.8437 10.6782 25.8843 11.4845 26.9999 11.5782C27.4781 11.6251 27.9656 11.597 28.4437 11.597C29.3999 11.597 30.3562 11.597 31.3124 11.597C32.7562 11.597 34.1999 11.597 35.6531 11.597C36.0374 11.597 36.3562 11.2782 36.3562 10.8938C36.3562 9.47821 36.3562 8.06258 36.3562 6.64696C36.3468 5.73758 34.9406 5.73758 34.9406 6.64696Z" fill="white"></path><path d="M37.4719 30.4969C36.0562 30.4969 34.6406 30.4969 33.225 30.4969C33.4594 30.7313 33.6937 30.9656 33.9281 31.2C33.9281 27.6938 33.9281 24.1875 33.9281 20.6813C33.6937 20.9156 33.4594 21.15 33.225 21.3844C34.6406 21.3844 36.0562 21.3844 37.4719 21.3844C37.2375 21.15 37.0031 20.9156 36.7687 20.6813C36.7687 24.1875 36.7687 27.6938 36.7687 31.2C36.7687 32.1094 38.175 32.1094 38.175 31.2C38.175 27.6938 38.175 24.1875 38.175 20.6813C38.175 20.2969 37.8562 19.9781 37.4719 19.9781C36.0562 19.9781 34.6406 19.9781 33.225 19.9781C32.8406 19.9781 32.5219 20.2969 32.5219 20.6813C32.5219 24.1875 32.5219 27.6938 32.5219 31.2C32.5219 31.5844 32.8406 31.9031 33.225 31.9031C34.6406 31.9031 36.0562 31.9031 37.4719 31.9031C38.3812 31.9031 38.3812 30.4969 37.4719 30.4969Z" fill="white"></path><path d="M41.7187 30.4969C40.3031 30.4969 38.8874 30.4969 37.4718 30.4969C37.7062 30.7313 37.9406 30.9656 38.1749 31.2C38.1749 27.6938 38.1749 24.1875 38.1749 20.6813C37.9406 20.9156 37.7062 21.15 37.4718 21.3844C38.8874 21.3844 40.3031 21.3844 41.7187 21.3844C41.4843 21.15 41.2499 20.9156 41.0156 20.6813C41.0156 24.1875 41.0156 27.6938 41.0156 31.2C41.0156 32.1094 42.4218 32.1094 42.4218 31.2C42.4218 27.6938 42.4218 24.1875 42.4218 20.6813C42.4218 20.2969 42.1031 19.9781 41.7187 19.9781C40.3031 19.9781 38.8874 19.9781 37.4718 19.9781C37.0874 19.9781 36.7687 20.2969 36.7687 20.6813C36.7687 24.1875 36.7687 27.6938 36.7687 31.2C36.7687 31.5844 37.0874 31.9031 37.4718 31.9031C38.8874 31.9031 40.3031 31.9031 41.7187 31.9031C42.6281 31.9031 42.6281 30.4969 41.7187 30.4969Z" fill="white"></path><path d="M28.9781 30.4969C27.5625 30.4969 26.1468 30.4969 24.7312 30.4969C24.9656 30.7313 25.2 30.9656 25.4343 31.2C25.4343 27.6938 25.4343 24.1875 25.4343 20.6813C25.2 20.9156 24.9656 21.15 24.7312 21.3844C26.1468 21.3844 27.5625 21.3844 28.9781 21.3844C28.7437 21.15 28.5093 20.9156 28.275 20.6813C28.275 24.1875 28.275 27.6938 28.275 31.2C28.275 32.1094 29.6812 32.1094 29.6812 31.2C29.6812 27.6938 29.6812 24.1875 29.6812 20.6813C29.6812 20.2969 29.3625 19.9781 28.9781 19.9781C27.5625 19.9781 26.1468 19.9781 24.7312 19.9781C24.3468 19.9781 24.0281 20.2969 24.0281 20.6813C24.0281 24.1875 24.0281 27.6938 24.0281 31.2C24.0281 31.5844 24.3468 31.9031 24.7312 31.9031C26.1468 31.9031 27.5625 31.9031 28.9781 31.9031C29.8781 31.9031 29.8781 30.4969 28.9781 30.4969Z" fill="white"></path><path d="M33.2249 30.4969C31.8093 30.4969 30.3937 30.4969 28.978 30.4969C29.2124 30.7313 29.4468 30.9656 29.6812 31.2C29.6812 27.6938 29.6812 24.1875 29.6812 20.6813C29.4468 20.9156 29.2124 21.15 28.978 21.3844C30.3937 21.3844 31.8093 21.3844 33.2249 21.3844C32.9905 21.15 32.7562 20.9156 32.5218 20.6813C32.5218 24.1875 32.5218 27.6938 32.5218 31.2C32.5218 32.1094 33.928 32.1094 33.928 31.2C33.928 27.6938 33.928 24.1875 33.928 20.6813C33.928 20.2969 33.6093 19.9781 33.2249 19.9781C31.8093 19.9781 30.3937 19.9781 28.978 19.9781C28.5937 19.9781 28.2749 20.2969 28.2749 20.6813C28.2749 24.1875 28.2749 27.6938 28.2749 31.2C28.2749 31.5844 28.5937 31.9031 28.978 31.9031C30.3937 31.9031 31.8093 31.9031 33.2249 31.9031C34.1249 31.9031 34.1249 30.4969 33.2249 30.4969Z" fill="white"></path><path d="M14.775 45.2625C13.3593 45.2625 11.9437 45.2625 10.5281 45.2625C10.7625 45.4969 10.9968 45.7313 11.2312 45.9656C11.2312 42.4594 11.2312 38.9531 11.2312 35.4469C10.9968 35.6813 10.7625 35.9156 10.5281 36.15C11.9437 36.15 13.3593 36.15 14.775 36.15C14.5406 35.9156 14.3062 35.6813 14.0718 35.4469C14.0718 38.9531 14.0718 42.4594 14.0718 45.9656C14.0718 46.875 15.4781 46.875 15.4781 45.9656C15.4781 42.4594 15.4781 38.9531 15.4781 35.4469C15.4781 35.0625 15.1593 34.7438 14.775 34.7438C13.3593 34.7438 11.9437 34.7438 10.5281 34.7438C10.1437 34.7438 9.82495 35.0625 9.82495 35.4469C9.82495 38.9531 9.82495 42.4594 9.82495 45.9656C9.82495 46.35 10.1437 46.6688 10.5281 46.6688C11.9437 46.6688 13.3593 46.6688 14.775 46.6688C15.6843 46.6688 15.6843 45.2625 14.775 45.2625Z" fill="white"></path><path d="M19.0218 45.2625C17.6062 45.2625 16.1905 45.2625 14.7749 45.2625C15.0093 45.4969 15.2437 45.7313 15.478 45.9656C15.478 42.4594 15.478 38.9531 15.478 35.4469C15.2437 35.6813 15.0093 35.9156 14.7749 36.15C16.1905 36.15 17.6062 36.15 19.0218 36.15C18.7874 35.9156 18.553 35.6813 18.3187 35.4469C18.3187 38.9531 18.3187 42.4594 18.3187 45.9656C18.3187 46.875 19.7249 46.875 19.7249 45.9656C19.7249 42.4594 19.7249 38.9531 19.7249 35.4469C19.7249 35.0625 19.4062 34.7438 19.0218 34.7438C17.6062 34.7438 16.1905 34.7438 14.7749 34.7438C14.3905 34.7438 14.0718 35.0625 14.0718 35.4469C14.0718 38.9531 14.0718 42.4594 14.0718 45.9656C14.0718 46.35 14.3905 46.6688 14.7749 46.6688C16.1905 46.6688 17.6062 46.6688 19.0218 46.6688C19.9312 46.6688 19.9312 45.2625 19.0218 45.2625Z" fill="white"></path><path d="M10.5281 45.2625C9.1125 45.2625 7.69688 45.2625 6.28125 45.2625C6.51563 45.4969 6.75 45.7313 6.98438 45.9656C6.98438 42.4594 6.98438 38.9531 6.98438 35.4469C6.75 35.6813 6.51563 35.9156 6.28125 36.15C7.69688 36.15 9.1125 36.15 10.5281 36.15C10.2938 35.9156 10.0594 35.6813 9.825 35.4469C9.825 38.9531 9.825 42.4594 9.825 45.9656C9.825 46.875 11.2313 46.875 11.2313 45.9656C11.2313 42.4594 11.2313 38.9531 11.2313 35.4469C11.2313 35.0625 10.9125 34.7438 10.5281 34.7438C9.1125 34.7438 7.69688 34.7438 6.28125 34.7438C5.89688 34.7438 5.57812 35.0625 5.57812 35.4469C5.57812 38.9531 5.57812 42.4594 5.57812 45.9656C5.57812 46.35 5.89688 46.6688 6.28125 46.6688C7.69688 46.6688 9.1125 46.6688 10.5281 46.6688C11.4375 46.6688 11.4375 45.2625 10.5281 45.2625Z" fill="white"></path></svg> 