<?xml version="1.0" encoding="UTF-8"?> <svg xmlns="http://www.w3.org/2000/svg" width="247" height="41" viewBox="0 0 247 41" fill="none"><g clip-path="url(#clip0_1330_559)"><path d="M40.5397 -7.53265e-05V20.4318H32.6832V7.85187H7.86685V40.8217H0V-0.0629883L40.5397 -7.53265e-05Z" fill="url(#paint0_linear_1330_559)"></path><path d="M40.5396 33.0957V40.8952C38.6661 41.0701 36.7806 41.0701 34.9071 40.8952C34.1276 40.8113 33.3794 40.7065 32.6728 40.5807C31.1775 40.2869 29.7202 39.8227 28.3288 39.1969C26.8485 38.5332 25.4528 37.692 24.172 36.6914C22.8629 35.6625 21.6833 34.4761 20.6595 33.1586L20.5555 33.0328C17.9381 29.5923 16.4814 25.3969 16.3987 21.0609C16.3987 20.9246 16.3987 20.7988 16.3987 20.6625V20.6101H24.2032V20.998C24.2429 22.7116 24.6325 24.3986 25.3477 25.9534C26.063 27.5083 27.0884 28.8976 28.36 30.0346C29.6129 31.1477 31.0765 31.9929 32.6624 32.5191C33.3592 32.7525 34.0758 32.9209 34.8031 33.0223C35.2443 33.0834 35.6883 33.1219 36.1333 33.1376C37.7857 33.1061 39.49 33.1061 40.5396 33.0957Z" fill="url(#paint1_linear_1330_559)"></path><path d="M57.323 28.3362V13.1145H67.7151C72.298 13.1145 74.8649 14.6241 74.8649 18.1989C74.9002 19.1721 74.6215 20.1305 74.0705 20.9302C73.5195 21.7298 72.7262 22.3275 71.8096 22.6333L75.1143 28.3362H70.0118L67.0916 23.2518H61.8955V28.3047L57.323 28.3362ZM61.9163 16.5425V19.8552H67.7359C69.3779 19.8552 70.1677 19.4988 70.1677 18.1989C70.1677 16.8989 69.3779 16.5425 67.7359 16.5425H61.9163Z" fill="white"></path><path d="M94.3916 18.9537V22.3817H83.511V24.9082H94.9424V28.3362H78.9177V13.1145H94.8073V16.5425H83.511V18.9537H94.3916Z" fill="white"></path><path d="M98.7668 19.3521H110.198V22.7906H98.7668V19.3521Z" fill="white"></path><path d="M127.148 17.0772C126.668 16.8997 126.179 16.7492 125.682 16.6264C124.414 16.3139 123.112 16.159 121.806 16.1652C119.385 16.1652 118.439 16.4273 118.439 17.3288C118.439 18.2304 119.707 18.5344 122.139 18.8699C127.958 19.6771 130.12 20.9036 130.12 23.8599C130.12 27.225 127.117 28.7136 121.588 28.7136C119.459 28.7675 117.336 28.4736 115.301 27.8435C114.652 27.6445 114.036 27.3514 113.472 26.9734L115.55 24.1115C116.054 24.3552 116.58 24.5517 117.119 24.6986C118.514 25.0876 119.954 25.2816 121.401 25.2751C123.895 25.2751 125.558 25.0445 125.558 23.8599C125.558 23.0841 124.518 22.8116 121.401 22.3922C116.09 21.5536 113.877 20.2327 113.877 17.4336C113.877 14.6346 116.215 12.7686 121.598 12.7686C123.563 12.7365 125.523 12.9871 127.418 13.5129C128.044 13.6884 128.648 13.9383 129.216 14.2572L127.148 17.0772Z" fill="white"></path><path d="M149.096 18.9537V22.3817H138.257V24.9082H149.688V28.3362H133.664V13.1145H149.553V16.5425H138.257V18.9537H149.096Z" fill="white"></path><path d="M153.762 28.3362V13.1145H164.383C169.205 13.1145 171.397 15.2111 171.397 18.6916C171.397 22.172 169.215 24.3001 164.383 24.3001H158.355V28.3676L153.762 28.3362ZM158.355 16.5425V20.8407H164.383C165.931 20.8407 166.7 20.1068 166.7 18.744C166.7 17.3812 165.931 16.6474 164.383 16.6474L158.355 16.5425Z" fill="white"></path><path d="M191.735 13.1145V16.5425H185.385V28.3362H180.792V16.5425H174.411V13.1145H191.735Z" fill="white"></path><path d="M199.861 28.3362H195.268V13.1145H199.861V28.3362Z" fill="white"></path><path d="M214.389 12.7686C221.664 12.7686 225.135 16.1861 225.135 20.7568C225.135 25.3275 221.622 28.745 214.389 28.745C207.157 28.745 203.644 25.3275 203.644 20.7568C203.644 16.1861 207.157 12.7686 214.389 12.7686ZM214.389 16.1966C209.848 16.1966 208.331 18.2932 208.331 20.7568C208.331 23.2204 209.838 25.317 214.389 25.317C218.941 25.317 220.438 23.2204 220.438 20.7568C220.438 18.2932 218.91 16.1651 214.389 16.1651V16.1966Z" fill="white"></path><path d="M228.928 13.1145H235.059L242.407 23.2833V13.1145H247V28.3467H240.869L233.521 18.1779V28.3467H228.928V13.1145Z" fill="white"></path></g><defs><linearGradient id="paint0_linear_1330_559" x1="40.5916" y1="-12.2969" x2="-32.1243" y2="66.859" gradientUnits="userSpaceOnUse"><stop stop-color="#D47F38"></stop><stop offset="1" stop-color="#8C3E13"></stop></linearGradient><linearGradient id="paint1_linear_1330_559" x1="55.1717" y1="1.10078" x2="-17.5545" y2="80.2461" gradientUnits="userSpaceOnUse"><stop stop-color="#D47F38"></stop><stop offset="1" stop-color="#8C3E13"></stop></linearGradient><clipPath id="clip0_1330_559"><rect width="247" height="41" fill="white"></rect></clipPath></defs></svg> 