<?xml version="1.0" encoding="UTF-8"?> <svg xmlns="http://www.w3.org/2000/svg" width="21" height="18" viewBox="0 0 21 18" fill="none"><path d="M19.0312 16.7142H1.96875C0.879375 16.7142 0 15.8528 0 14.7856V3.21422C0 2.14707 0.879375 1.28564 1.96875 1.28564H19.0312C20.1206 1.28564 21 2.14707 21 3.21422V14.7856C21 15.8528 20.1206 16.7142 19.0312 16.7142ZM1.96875 2.57136C1.60125 2.57136 1.3125 2.85422 1.3125 3.21422V14.7856C1.3125 15.1456 1.60125 15.4285 1.96875 15.4285H19.0312C19.3988 15.4285 19.6875 15.1456 19.6875 14.7856V3.21422C19.6875 2.85422 19.3988 2.57136 19.0312 2.57136H1.96875Z" fill="#C97310"></path><path d="M10.5 11.52C9.58124 11.52 8.74124 11.16 8.11124 10.5043L1.22062 3.33001C0.971241 3.07287 0.984366 2.66144 1.24687 2.41716C1.50937 2.17287 1.92937 2.18573 2.17874 2.44287L9.06937 9.61716C9.81749 10.4014 11.1825 10.4014 11.9306 9.61716L18.8212 2.45573C19.0706 2.19858 19.4906 2.18573 19.7531 2.43001C20.0156 2.6743 20.0287 3.08573 19.7794 3.34287L12.8887 10.5172C12.2587 11.1729 11.4187 11.5329 10.5 11.5329V11.52Z" fill="#C97310"></path></svg> 