<?xml version="1.0" encoding="UTF-8"?> <svg xmlns="http://www.w3.org/2000/svg" width="21" height="20" viewBox="0 0 21 20" fill="none"><path d="M18.7754 2.04595C18.6737 1.96233 18.55 1.90672 18.4176 1.88511C18.2852 1.86349 18.1491 1.8767 18.0239 1.92329L1.39949 8.11939C1.16389 8.20664 0.964418 8.36443 0.831118 8.56899C0.697818 8.77355 0.637901 9.01382 0.660387 9.25362C0.682873 9.49342 0.786546 9.71977 0.955797 9.8986C1.12505 10.0774 1.35072 10.1991 1.59883 10.2452L5.90629 11.0506V15.6249C5.90544 15.874 5.98319 16.1177 6.12945 16.3242C6.27571 16.5308 6.48375 16.6908 6.7266 16.7835C6.96908 16.8778 7.23574 16.9004 7.49191 16.8484C7.74807 16.7964 7.9819 16.6723 8.16297 16.492L10.24 14.4405L13.5352 17.1874C13.7729 17.3882 14.0796 17.4993 14.3973 17.4999C14.5366 17.4998 14.675 17.4789 14.8075 17.4381C15.024 17.3727 15.2188 17.2544 15.3723 17.095C15.5259 16.9356 15.6329 16.7406 15.6828 16.5295L19.0124 2.73423C19.0422 2.60982 19.0359 2.48003 18.9941 2.35878C18.9524 2.23753 18.8767 2.12939 18.7754 2.04595ZM13.76 4.85845L6.41078 9.87095L2.34203 9.11079L13.76 4.85845ZM7.21879 15.6249V11.9155L9.25234 13.6139L7.21879 15.6249ZM14.399 16.2499L7.61664 10.5858L17.3784 3.92251L14.399 16.2499Z" fill="#C97310"></path></svg> 