<?xml version="1.0" encoding="UTF-8"?> <svg xmlns="http://www.w3.org/2000/svg" width="363" height="61" viewBox="0 0 363 61" fill="none"><g clip-path="url(#clip0_1330_501)"><path d="M59.5785 -0.000147808V30.3985H48.0324V11.682H11.5614V60.7347H0V-0.09375L59.5785 -0.000147808Z" fill="url(#paint0_linear_1330_501)"></path><path d="M59.5784 49.2396V60.8438C56.825 61.104 54.054 61.104 51.3007 60.8438C50.1552 60.719 49.0556 60.5631 48.0171 60.3759C45.8196 59.9388 43.6778 59.2481 41.6331 58.3171C39.4575 57.3297 37.4063 56.0781 35.524 54.5894C33.6002 53.0586 31.8666 51.2934 30.3619 49.3332L30.2092 49.1461C26.3625 44.0274 24.2217 37.7854 24.1001 31.3343C24.1001 31.1315 24.1001 30.9443 24.1001 30.7416V30.6636H35.5699V31.2407C35.6282 33.7902 36.2008 36.3001 37.252 38.6134C38.3031 40.9267 39.8102 42.9937 41.6789 44.6853C43.5201 46.3414 45.6711 47.5989 48.0018 48.3818C49.0259 48.729 50.079 48.9796 51.1479 49.1305C51.7963 49.2215 52.4488 49.2787 53.1028 49.302C55.5312 49.2552 58.0359 49.2552 59.5784 49.2396Z" fill="url(#paint1_linear_1330_501)"></path><path d="M84.2439 42.1586V19.5117H99.5165C106.252 19.5117 110.024 21.7577 110.024 27.0763C110.076 28.5242 109.666 29.9502 108.857 31.1399C108.047 32.3297 106.881 33.2189 105.534 33.6738L110.391 42.1586H102.892L98.6002 34.594H90.9638V42.1118L84.2439 42.1586ZM90.9944 24.612V29.5406H99.5471C101.96 29.5406 103.121 29.0103 103.121 27.0763C103.121 25.1422 101.96 24.612 99.5471 24.612H90.9944Z" fill="white"></path><path d="M138.721 28.1993V33.2995H122.731V37.0584H139.531V42.1586H115.98V19.5117H139.332V24.612H122.731V28.1993H138.721Z" fill="white"></path><path d="M145.151 28.792H161.951V33.9078H145.151V28.792Z" fill="white"></path><path d="M186.861 25.4076C186.156 25.1435 185.437 24.9196 184.707 24.7369C182.843 24.272 180.93 24.0415 179.011 24.0507C175.452 24.0507 174.062 24.4406 174.062 25.782C174.062 27.1233 175.926 27.5756 179.499 28.0747C188.052 29.2757 191.229 31.1005 191.229 35.4989C191.229 40.5055 186.815 42.7203 178.69 42.7203C175.562 42.8004 172.441 42.3633 169.45 41.4258C168.497 41.1297 167.592 40.6936 166.762 40.1312L169.816 35.8732C170.557 36.2358 171.329 36.5282 172.123 36.7467C174.172 37.3255 176.289 37.6141 178.415 37.6045C182.08 37.6045 184.524 37.2614 184.524 35.4989C184.524 34.3447 182.997 33.9392 178.415 33.3153C170.611 32.0675 167.358 30.1023 167.358 25.9379C167.358 21.7735 170.794 18.9972 178.705 18.9972C181.593 18.9495 184.473 19.3224 187.258 20.1046C188.178 20.3658 189.065 20.7375 189.9 21.212L186.861 25.4076Z" fill="white"></path><path d="M219.117 28.1993V33.2995H203.187V37.0584H219.987V42.1586H196.437V19.5117H219.788V24.612H203.187V28.1993H219.117Z" fill="white"></path><path d="M225.974 42.1586V19.5117H241.583C248.669 19.5117 251.892 22.6311 251.892 27.8093C251.892 32.9875 248.684 36.1538 241.583 36.1538H232.724V42.2054L225.974 42.1586ZM232.724 24.612V31.0067H241.583C243.858 31.0067 244.988 29.9149 244.988 27.8873C244.988 25.8597 243.858 24.7679 241.583 24.7679L232.724 24.612Z" fill="white"></path><path d="M281.78 19.5117V24.612H272.449V42.1586H265.698V24.612H256.321V19.5117H281.78Z" fill="white"></path><path d="M293.723 42.1586H286.973V19.5117H293.723V42.1586Z" fill="white"></path><path d="M315.074 18.9971C325.765 18.9971 330.866 24.0817 330.866 30.882C330.866 37.6823 325.704 42.767 315.074 42.767C304.445 42.767 299.283 37.6823 299.283 30.882C299.283 24.0817 304.445 18.9971 315.074 18.9971ZM315.074 24.0973C308.4 24.0973 306.171 27.2167 306.171 30.882C306.171 34.5473 308.385 37.6667 315.074 37.6667C321.764 37.6667 323.963 34.5473 323.963 30.882C323.963 27.2167 321.718 24.0505 315.074 24.0505V24.0973Z" fill="white"></path><path d="M336.441 19.5117H345.452L356.25 34.6408V19.5117H363V42.1742H353.989L343.191 27.0451V42.1742H336.441V19.5117Z" fill="white"></path></g><defs><linearGradient id="paint0_linear_1330_501" x1="59.6549" y1="-18.2955" x2="-48.6367" y2="98.1472" gradientUnits="userSpaceOnUse"><stop stop-color="#D47F38"></stop><stop offset="1" stop-color="#8C3E13"></stop></linearGradient><linearGradient id="paint1_linear_1330_501" x1="81.0823" y1="1.63751" x2="-27.2242" y2="118.064" gradientUnits="userSpaceOnUse"><stop stop-color="#D47F38"></stop><stop offset="1" stop-color="#8C3E13"></stop></linearGradient><clipPath id="clip0_1330_501"><rect width="363" height="61" fill="white"></rect></clipPath></defs></svg> 