<?xml version="1.0" encoding="UTF-8"?> <svg xmlns="http://www.w3.org/2000/svg" width="87" height="88" viewBox="0 0 87 88" fill="none"><g clip-path="url(#clip0_1316_97)"><path d="M87.2615 2.29081e-05V43.8537H70.3505V16.853H16.9334V87.6175H0V-0.13501L87.2615 2.29081e-05Z" fill="url(#paint0_linear_1316_97)"></path><path d="M87.2615 71.0346V87.775C83.2288 88.1504 79.1703 88.1504 75.1375 87.775C73.4599 87.595 71.8493 87.3701 70.3282 87.1001C67.1097 86.4695 63.9728 85.473 60.978 84.13C57.7915 82.7055 54.7873 80.9 52.0304 78.7523C49.2126 76.5439 46.6735 73.9974 44.4696 71.1696L44.2459 70.8996C38.612 63.5152 35.4764 54.5105 35.2983 45.2039C35.2983 44.9114 35.2983 44.6413 35.2983 44.3488V44.2363H52.0975V45.0689C52.1829 48.7469 53.0216 52.3676 54.5612 55.7049C56.1007 59.0421 58.308 62.0241 61.0451 64.4644C63.7418 66.8535 66.8922 68.6676 70.3059 69.7971C71.8058 70.298 73.3483 70.6595 74.9139 70.8771C75.8635 71.0084 76.8191 71.091 77.7771 71.1246C81.3338 71.0571 85.0023 71.0571 87.2615 71.0346Z" fill="url(#paint1_linear_1316_97)"></path></g><defs><linearGradient id="paint0_linear_1316_97" x1="87.3733" y1="-26.3933" x2="-68.6614" y2="143.948" gradientUnits="userSpaceOnUse"><stop stop-color="#D47F38"></stop><stop offset="1" stop-color="#8C3E13"></stop></linearGradient><linearGradient id="paint1_linear_1316_97" x1="118.757" y1="2.36266" x2="-37.2998" y2="172.681" gradientUnits="userSpaceOnUse"><stop stop-color="#D47F38"></stop><stop offset="1" stop-color="#8C3E13"></stop></linearGradient><clipPath id="clip0_1316_97"><rect width="87" height="88" fill="white"></rect></clipPath></defs></svg> 