<?xml version="1.0" encoding="UTF-8" standalone="no" ?>
<!DOCTYPE svg PUBLIC "-//W3C//DTD SVG 1.1//EN" "http://www.w3.org/Graphics/SVG/1.1/DTD/svg11.dtd">
<svg xmlns="http://www.w3.org/2000/svg" xmlns:xlink="http://www.w3.org/1999/xlink" version="1.1" width="1080" height="1080" viewBox="0 0 1080 1080" xml:space="preserve">
<desc>Created with Fabric.js 5.2.4</desc>
<defs>
</defs>
<g transform="matrix(1 0 0 1 540 540)" id="c2e9df14-726a-45ba-898c-ed5ce1421dd2"  >
<rect style="stroke: none; stroke-width: 1; stroke-dasharray: none; stroke-linecap: butt; stroke-dashoffset: 0; stroke-linejoin: miter; stroke-miterlimit: 4; fill: rgb(255,255,255); fill-rule: nonzero; opacity: 1; visibility: hidden;" vector-effect="non-scaling-stroke"  x="-540" y="-540" rx="0" ry="0" width="1080" height="1080" />
</g>
<g transform="matrix(1 0 0 1 540 540)" id="b1deb16e-5e4f-4814-b46e-b5f34a008865"  >
</g>
<g transform="matrix(1 0 0 1 540 494.45)"  >
<g style="" vector-effect="non-scaling-stroke"   >
		<g transform="matrix(1 0 0 1 0 -0.11)"  >
<linearGradient id="SVGID_linear-gradient_3" gradientUnits="userSpaceOnUse" gradientTransform="matrix(1 0 0 1 0 0)"  x1="294.68" y1="166.35" x2="151.68" y2="323.35">
<stop offset="0%" style="stop-color:rgb(212,127,56);stop-opacity: 1"/>
<stop offset="100%" style="stop-color:rgb(140,62,19);stop-opacity: 1"/>
</linearGradient>
<path style="stroke: none; stroke-width: 1; stroke-dasharray: none; stroke-linecap: butt; stroke-dashoffset: 0; stroke-linejoin: miter; stroke-miterlimit: 4; fill: url(#SVGID_linear-gradient_3); fill-rule: nonzero; opacity: 1;" vector-effect="non-scaling-stroke"  transform=" translate(-254.33, -230.77)" d="M 294.57 190.54 L 294.57 230.75 L 279 230.75 L 279 206.07 L 229.73 206.15 L 229.73 271 L 214.09 271 L 214.09 190.54 Z" stroke-linecap="round" />
</g>
		<g transform="matrix(1 0 0 1 16.24 20.19)"  >
<linearGradient id="SVGID_linear-gradient-2_4" gradientUnits="userSpaceOnUse" gradientTransform="matrix(1 0 0 1 0 0)"  x1="323.6" y1="192.69" x2="180.6" y2="349.69">
<stop offset="0%" style="stop-color:rgb(212,127,56);stop-opacity: 1"/>
<stop offset="100%" style="stop-color:rgb(140,62,19);stop-opacity: 1"/>
</linearGradient>
<path style="stroke: none; stroke-width: 1; stroke-dasharray: none; stroke-linecap: butt; stroke-dashoffset: 0; stroke-linejoin: miter; stroke-miterlimit: 4; fill: url(#SVGID_linear-gradient-2_4); fill-rule: nonzero; opacity: 1;" vector-effect="non-scaling-stroke"  transform=" translate(-270.56, -251.07)" d="M 294.57 255.66 L 294.57 271 C 290.8521308565766 271.3169379066943 287.1129481362058 271.290157726065 283.4 270.92 C 281.84999999999997 270.76 280.4 270.56 278.96999999999997 270.31 L 278.96999999999997 270.31 C 276.0029766338483 269.73252263651744 273.11111951911147 268.82001087873505 270.34999999999997 267.59 L 270.26 267.59 C 267.34274434132806 266.2799602537078 264.593114092387 264.62481042131714 262.07 262.65999999999997 L 262.07 262.65999999999997 C 259.4619396570907 260.6375036662465 257.11113990250396 258.3034953384782 255.07 255.70999999999998 L 254.87 255.45 L 254.81 255.36999999999998 L 254.81 255.36999999999998 C 249.61917410765963 248.60054152678478 246.72846602357657 240.34888390494768 246.56 231.81999999999996 L 246.56 231.81999999999996 C 246.56 231.55999999999997 246.56 231.29999999999995 246.56 231.03999999999996 L 246.56 230.92999999999995 L 262 230.92999999999995 L 262 231.62999999999994 L 262 231.69999999999993 L 262 231.69999999999993 C 262.17353077592054 238.52806295838124 265.1849426480882 244.974876099881 270.31 249.48999999999992 L 270.31 249.48999999999992 C 272.7959223400614 251.6841712736209 275.70119824117376 253.35113285622631 278.85 254.38999999999993 L 278.85 254.38999999999993 C 280.22986762421834 254.85198204117756 281.6491197893245 255.18671132540072 283.09000000000003 255.38999999999993 C 283.96553189158215 255.51137175132328 284.84666994812204 255.58813756685515 285.73 255.61999999999992 C 289.09 255.68 292.49 255.68 294.57 255.66 Z" stroke-linecap="round" />
</g>
</g>
</g>
<g transform="matrix(1 0 0 0.82 540 570.01)" style="" id="783de8b9-e003-4dc8-ad18-2bce7d44516c"  >
		<text xml:space="preserve" font-family="Raleway" font-size="39" font-style="normal" font-weight="900" style="stroke: none; stroke-width: 1; stroke-dasharray: none; stroke-linecap: butt; stroke-dashoffset: 0; stroke-linejoin: miter; stroke-miterlimit: 4; fill: rgb(255,255,255); fill-rule: nonzero; opacity: 1; white-space: pre;" ><tspan x="-119.01" y="12.25" >FURNIBUILD</tspan></text>
</g>
</svg>