<?xml version="1.0" encoding="UTF-8"?> <svg xmlns="http://www.w3.org/2000/svg" xmlns:xlink="http://www.w3.org/1999/xlink" id="Layer_1" data-name="Layer 1" viewBox="0 0 235.38 119.38"> <defs> <style>.cls-1{fill:url(#linear-gradient);}.cls-2{fill:url(#linear-gradient-2);}.cls-3{fill:#fff;}</style> <linearGradient id="linear-gradient" x1="294.68" y1="166.35" x2="151.68" y2="323.35" gradientUnits="userSpaceOnUse"> <stop offset="0" stop-color="#d47f38"></stop> <stop offset="1" stop-color="#8c3e13"></stop> </linearGradient> <linearGradient id="linear-gradient-2" x1="323.6" y1="192.69" x2="180.6" y2="349.69" xlink:href="#linear-gradient"></linearGradient> </defs> <title>веб 4</title> <path class="cls-1" d="M294.57,190.54v40.21H279V206.07l-49.27.08V271H214.09V190.54Z" transform="translate(-137.2 -190.54)"></path> <path class="cls-2" d="M294.57,255.66V271a60.66,60.66,0,0,1-11.17-.08c-1.55-.16-3-.36-4.43-.61h0a39.93,39.93,0,0,1-8.62-2.72l-.09,0a40,40,0,0,1-8.19-4.93h0a40.46,40.46,0,0,1-7-6.95l-.2-.26-.06-.08h0a40,40,0,0,1-8.25-23.55v0c0-.26,0-.52,0-.78v-.11H262v.7l0,.07h0a24.54,24.54,0,0,0,8.31,17.79l0,0a24.51,24.51,0,0,0,8.54,4.9h0a23.85,23.85,0,0,0,4.24,1,26.07,26.07,0,0,0,2.64.23C289.09,255.68,292.49,255.68,294.57,255.66Z" transform="translate(-137.2 -190.54)"></path> <path class="cls-3" d="M137.2,309.46V290.72h12.92c5.69,0,8.87,1.86,8.87,6.26a5.53,5.53,0,0,1-3.79,5.46l4.1,7H153l-3.65-6.21H142.9v6.21Zm5.7-14.51V299h7.22c2,0,3-.43,3-2s-1-2-3-2Z" transform="translate(-137.2 -190.54)"></path> <path class="cls-3" d="M183.14,297.91v4.22H169.7v3.11h14.24v4.22H164V290.72h19.72v4.22h-14v3Z" transform="translate(-137.2 -190.54)"></path> <path class="cls-3" d="M188.63,298.4H202.8v4.24H188.63Z" transform="translate(-137.2 -190.54)"></path> <path class="cls-3" d="M223.85,295.61A17.18,17.18,0,0,0,222,295a19.89,19.89,0,0,0-4.81-.57c-3,0-4.17.32-4.17,1.44s1.58,1.48,4.59,1.9c7.22,1,9.91,2.5,9.91,6.14,0,4.14-3.72,6-10.59,6a24.45,24.45,0,0,1-7.81-1.07,8.7,8.7,0,0,1-2.27-1.07l2.55-3.52a11.38,11.38,0,0,0,1.95.73,19.6,19.6,0,0,0,5.32.71c3.09,0,5.15-.28,5.15-1.75,0-1-1.25-1.24-5.16-1.81-6.58-1-9.34-2.66-9.34-6.11s3-5.78,9.61-5.78a25.66,25.66,0,0,1,7.22.91,10.21,10.21,0,0,1,2.23.91Z" transform="translate(-137.2 -190.54)"></path> <path class="cls-3" d="M251.08,297.91v4.22H237.63v3.11h14.24v4.22H231.93V290.72h19.72v4.22h-14v3Z" transform="translate(-137.2 -190.54)"></path> <path class="cls-3" d="M256.87,309.46V290.72h13.18c6,0,8.7,2.58,8.7,6.86s-2.72,6.86-8.7,6.86h-7.48v5Zm5.7-14.51v5.29h7.48c1.92,0,2.88-.9,2.88-2.64s-1-2.64-2.87-2.64Z" transform="translate(-137.2 -190.54)"></path> <path class="cls-3" d="M304,290.72v4.22h-7.88v14.51h-5.7V294.94h-7.88v-4.22Z" transform="translate(-137.2 -190.54)"></path> <path class="cls-3" d="M314.08,309.46h-5.7V290.72h5.7Z" transform="translate(-137.2 -190.54)"></path> <path class="cls-3" d="M332.11,290.26c9,0,13.34,4.21,13.34,9.83s-4.36,9.83-13.34,9.83-13.34-4.2-13.34-9.83S323.13,290.26,332.11,290.26Zm0,4.22c-5.64,0-7.51,2.61-7.51,5.61s1.87,5.61,7.51,5.61,7.51-2.61,7.51-5.61S337.72,294.48,332.11,294.48Z" transform="translate(-137.2 -190.54)"></path> <path class="cls-3" d="M350.15,290.72h7.6l9.12,12.5v-12.5h5.7v18.73H365L355.85,297v12.5h-5.7Z" transform="translate(-137.2 -190.54)"></path> </svg> 