<?xml version="1.0" encoding="UTF-8"?> <svg xmlns="http://www.w3.org/2000/svg" xmlns:xlink="http://www.w3.org/1999/xlink" version="1.1" id="Layer_1" x="0px" y="0px" viewBox="0 0 113.4 113.5" style="enable-background:new 0 0 113.4 113.5;" xml:space="preserve"> <style type="text/css"> .st0{fill:url(#SVGID_1_);} .st1{fill:url(#SVGID_00000121256543681720424000000003570500955814250138_);} </style> <linearGradient id="SVGID_1_" gradientUnits="userSpaceOnUse" x1="234.2352" y1="-62.8604" x2="91.2352" y2="-219.8604" gradientTransform="matrix(1 0 0 -1 -137.2 -70.6502)"> <stop offset="0" style="stop-color:#D47F38"></stop> <stop offset="1" style="stop-color:#8C3E13"></stop> </linearGradient> <path class="st0" d="M96.9,16.4v40.2H81.4V31.9L32.1,32v64.8H16.4V16.4H96.9z"></path> <linearGradient id="SVGID_00000044880353337735797530000008031311405812270230_" gradientUnits="userSpaceOnUse" x1="263.1817" y1="-89.2245" x2="120.1816" y2="-246.2245" gradientTransform="matrix(1 0 0 -1 -137.2 -70.6502)"> <stop offset="0" style="stop-color:#D47F38"></stop> <stop offset="1" style="stop-color:#8C3E13"></stop> </linearGradient> <path style="fill:url(#SVGID_00000044880353337735797530000008031311405812270230_);" d="M96.9,81.5v15.3c-3.7,0.3-7.5,0.3-11.2-0.1 c-1.5-0.2-3-0.4-4.4-0.6l0,0c-3-0.6-5.9-1.5-8.6-2.7h-0.1c-2.9-1.3-5.7-3-8.2-4.9l0,0c-2.6-2-5-4.4-7-6.9l-0.2-0.3l-0.1-0.1l0,0 c-5.2-6.8-8.1-15-8.2-23.6l0,0c0-0.3,0-0.5,0-0.8v-0.1h15.4v0.7v0.1l0,0c0.2,6.8,3.2,13.3,8.3,17.8l0,0c2.5,2.2,5.4,3.9,8.5,4.9l0,0 c1.4,0.5,2.8,0.8,4.2,1c0.9,0.1,1.8,0.2,2.6,0.2C91.4,81.5,94.8,81.5,96.9,81.5z"></path> </svg> 