<?xml version="1.0" encoding="UTF-8" standalone="no"?>
<svg
   version="1.1"
   width="398.44315"
   height="218.87613"
   viewBox="996.92 902.91 398.44315 218.87613"
   xml:space="preserve"
   id="svg19"
   sodipodi:docname="Mediamodifier-Design (4).svg"
   inkscape:version="1.4.2 (f4327f4, 2025-05-13)"
   xmlns:inkscape="http://www.inkscape.org/namespaces/inkscape"
   xmlns:sodipodi="http://sodipodi.sourceforge.net/DTD/sodipodi-0.dtd"
   xmlns="http://www.w3.org/2000/svg"
   xmlns:svg="http://www.w3.org/2000/svg"><sodipodi:namedview
   id="namedview19"
   pagecolor="#ffffff"
   bordercolor="#000000"
   borderopacity="0.25"
   inkscape:showpageshadow="2"
   inkscape:pageopacity="0.0"
   inkscape:pagecheckerboard="0"
   inkscape:deskcolor="#d1d1d1"
   inkscape:zoom="1.5176602"
   inkscape:cx="102.46035"
   inkscape:cy="197.34325"
   inkscape:window-width="1920"
   inkscape:window-height="1009"
   inkscape:window-x="-8"
   inkscape:window-y="-8"
   inkscape:window-maximized="1"
   inkscape:current-layer="svg19" />
<desc
   id="desc1">Created with Fabric.js 5.2.4</desc>
<defs
   id="defs1">
</defs>


<g
   id="4331d383-2789-494e-98a8-77965aaa933a"
   transform="translate(-827.04972,-770.07121)">
</g>
<g
   transform="matrix(1.67,0,0,1.67,1192.8979,970.2277)"
   id="g7">
<g
   vector-effect="non-scaling-stroke"
   id="g6">
		<g
   transform="translate(0,-0.11)"
   id="g3">
<linearGradient
   id="SVGID_SVGID_1__3"
   gradientUnits="userSpaceOnUse"
   gradientTransform="matrix(1,0,0,-1,-137.2,-70.65)"
   x1="234.2352"
   y1="-62.860401"
   x2="91.235199"
   y2="-219.8604">
<stop
   offset="0%"
   style="stop-color:rgb(212,127,56);stop-opacity: 1"
   id="stop2" />
<stop
   offset="100%"
   style="stop-color:rgb(140,62,19);stop-opacity: 1"
   id="stop3" />
</linearGradient>
<path
   style="opacity:1;fill:url(#SVGID_SVGID_1__3);fill-rule:nonzero;stroke:none;stroke-width:1;stroke-linecap:butt;stroke-linejoin:miter;stroke-miterlimit:4;stroke-dasharray:none;stroke-dashoffset:0"
   vector-effect="non-scaling-stroke"
   transform="translate(-56.65,-56.6)"
   d="M 96.9,16.4 V 56.6 H 81.4 V 31.9 L 32.1,32 V 96.8 H 16.4 V 16.4 Z"
   stroke-linecap="round"
   id="path3" />
</g>
		<g
   transform="translate(16.25,20.15)"
   id="g5">
<linearGradient
   id="SVGID_SVGID_00000044880353337735797530000008031311405812270230__4"
   gradientUnits="userSpaceOnUse"
   gradientTransform="matrix(1,0,0,-1,-137.2,-70.65)"
   x1="263.1817"
   y1="-89.224503"
   x2="120.1816"
   y2="-246.2245">
<stop
   offset="0%"
   style="stop-color:rgb(212,127,56);stop-opacity: 1"
   id="stop4" />
<stop
   offset="100%"
   style="stop-color:rgb(140,62,19);stop-opacity: 1"
   id="stop5" />
</linearGradient>
<path
   style="opacity:1;fill:url(#SVGID_SVGID_00000044880353337735797530000008031311405812270230__4);fill-rule:nonzero;stroke:none;stroke-width:1;stroke-linecap:butt;stroke-linejoin:miter;stroke-miterlimit:4;stroke-dasharray:none;stroke-dashoffset:0"
   vector-effect="non-scaling-stroke"
   transform="translate(-72.9,-76.86)"
   d="m 96.9,81.5 v 15.3 c -3.7,0.3 -7.5,0.3 -11.2,-0.1 -1.5,-0.2 -3,-0.4 -4.4,-0.6 v 0 c -3,-0.6 -5.9,-1.5 -8.6,-2.7 h -0.1 c -2.9,-1.3 -5.7,-3 -8.2,-4.9 v 0 c -2.6,-2 -5,-4.4 -7,-6.9 l -0.2,-0.3 -0.1,-0.1 v 0 C 51.9,74.4 49,66.2 48.9,57.6 v 0 c 0,-0.3 0,-0.5 0,-0.8 v -0.1 h 15.4 v 0.7 0.1 0 c 0.2,6.8 3.2,13.3 8.3,17.8 v 0 c 2.5,2.2 5.4,3.9 8.5,4.9 v 0 c 1.4,0.5 2.8,0.8 4.2,1 0.9,0.1 1.8,0.2 2.6,0.2 3.5,0.1 6.9,0.1 9,0.1 z"
   stroke-linecap="round"
   id="path5" />
</g>
</g>
</g>
<g
   transform="matrix(0.60444041,0,0,0.6022282,1196.2221,1098.8051)"
   id="g19">
<g
   vector-effect="non-scaling-stroke"
   id="g18">
		<g
   transform="matrix(0.13,0,0,-0.13,-305.68,-0.2)"
   id="g8">
<path
   style="opacity:1;fill:#ffffff;fill-rule:nonzero;stroke:none;stroke-width:1;stroke-linecap:butt;stroke-linejoin:miter;stroke-miterlimit:4;stroke-dasharray:none;stroke-dashoffset:0"
   vector-effect="non-scaling-stroke"
   transform="translate(-3965,-5200)"
   d="m 3780,5200 v -290 h 60 60 v 105 105 h 115 115 v 55 55 h -115 -115 v 70 70 h 125 125 v 60 60 h -185 -185 z"
   stroke-linecap="round"
   id="path7" />
</g>
		<g
   transform="matrix(0.13,0,0,-0.13,-233.01,0.07)"
   id="g9">
<path
   style="opacity:1;fill:#ffffff;fill-rule:nonzero;stroke:none;stroke-width:1;stroke-linecap:butt;stroke-linejoin:miter;stroke-miterlimit:4;stroke-dasharray:none;stroke-dashoffset:0"
   vector-effect="non-scaling-stroke"
   transform="translate(-4510,-5198)"
   d="m 4260,5282 c 0,-232 4,-254 62,-308 59,-56 94,-69 188,-69 68,0 93,5 126,22 53,28 100,82 113,130 6,21 11,127 11,236 v 197 h -65 -65 v -198 c 0,-216 -3,-227 -60,-257 -63,-33 -159,-5 -181,52 -5,15 -9,107 -8,212 l 1,186 -61,3 -61,3 z"
   stroke-linecap="round"
   id="path8" />
</g>
		<g
   transform="matrix(0.13,0,0,-0.13,-152.34,-0.27)"
   id="g10">
<path
   style="opacity:1;fill:#ffffff;fill-rule:nonzero;stroke:none;stroke-width:1;stroke-linecap:butt;stroke-linejoin:miter;stroke-miterlimit:4;stroke-dasharray:none;stroke-dashoffset:0"
   vector-effect="non-scaling-stroke"
   transform="translate(-5115,-5200.5)"
   d="m 4880,5201 v -292 l 63,3 62,3 1,90 2,90 28,3 c 26,3 36,-7 99,-92 l 70,-95 73,-1 c 39,0 72,1 72,3 0,2 -32,46 -71,98 -63,84 -68,95 -52,104 43,24 92,83 103,125 24,90 -10,175 -90,220 -42,23 -57,25 -202,28 l -158,4 z m 298,160 c 27,-14 44,-65 32,-95 -16,-43 -48,-56 -132,-56 h -78 v 78 c 0,43 3,82 8,86 10,11 145,0 170,-13 z"
   stroke-linecap="round"
   id="path9" />
</g>
		<g
   transform="matrix(0.13,0,0,-0.13,-73.68,-0.27)"
   id="g11">
<path
   style="opacity:1;fill:#ffffff;fill-rule:nonzero;stroke:none;stroke-width:1;stroke-linecap:butt;stroke-linejoin:miter;stroke-miterlimit:4;stroke-dasharray:none;stroke-dashoffset:0"
   vector-effect="non-scaling-stroke"
   transform="translate(-5705,-5200.5)"
   d="m 5440,5200 v -290 h 65 65 l 2,172 3,172 140,-172 139,-172 h 58 58 v 290 291 l -67,-3 -68,-3 v -172 c 0,-95 -2,-173 -5,-173 -3,1 -67,79 -143,175 l -139,175 h -54 -54 z"
   stroke-linecap="round"
   id="path10" />
</g>
		<g
   transform="matrix(0.13,0,0,-0.13,-12.94,-0.2)"
   id="g12">
<path
   style="opacity:1;fill:#ffffff;fill-rule:nonzero;stroke:none;stroke-width:1;stroke-linecap:butt;stroke-linejoin:miter;stroke-miterlimit:4;stroke-dasharray:none;stroke-dashoffset:0"
   vector-effect="non-scaling-stroke"
   transform="translate(-6160.5,-5200)"
   d="m 6100,5200 v -291 l 60,3 60,3 1,285 v 285 l -60,3 -61,3 z"
   stroke-linecap="round"
   id="path11" />
</g>
		<g
   transform="matrix(0.13,0,0,-0.13,43.58,-0.07)"
   id="g13">
<path
   style="opacity:1;fill:#ffffff;fill-rule:nonzero;stroke:none;stroke-width:1;stroke-linecap:butt;stroke-linejoin:miter;stroke-miterlimit:4;stroke-dasharray:none;stroke-dashoffset:0"
   vector-effect="non-scaling-stroke"
   transform="translate(-6584.41,-5199)"
   d="m 6360,5199 v -291 l 163,4 c 144,3 167,6 204,26 53,28 75,60 81,121 5,53 -13,98 -55,137 l -25,23 21,27 c 16,20 21,41 21,83 0,48 -4,62 -31,93 -42,53 -101,68 -256,68 h -123 z m 271,161 c 22,-12 27,-68 7,-88 -7,-7 -42,-12 -85,-12 h -73 v 55 55 h 66 c 36,0 74,-5 85,-10 z m 29,-220 c 27,-27 27,-85 1,-100 -11,-5 -56,-10 -100,-10 h -81 v 65 65 h 80 c 67,0 83,-3 100,-20 z"
   stroke-linecap="round"
   id="path12" />
</g>
		<g
   transform="matrix(0.13,0,0,-0.13,118.39,0.13)"
   id="g14">
<path
   style="opacity:1;fill:#ffffff;fill-rule:nonzero;stroke:none;stroke-width:1;stroke-linecap:butt;stroke-linejoin:miter;stroke-miterlimit:4;stroke-dasharray:none;stroke-dashoffset:0"
   vector-effect="non-scaling-stroke"
   transform="translate(-7145.5,-5197.5)"
   d="m 6900,5293 c 0,-109 5,-214 10,-234 16,-58 51,-101 105,-128 42,-22 63,-26 135,-26 75,0 91,3 132,28 31,18 57,44 75,75 28,47 28,47 31,265 l 3,217 h -60 -61 v -198 c 0,-216 -3,-227 -60,-257 -58,-30 -140,-12 -174,37 -13,19 -16,57 -16,220 v 198 h -60 -60 z"
   stroke-linecap="round"
   id="path13" />
</g>
		<g
   transform="matrix(0.13,0,0,-0.13,175.66,-0.2)"
   id="g15">
<path
   style="opacity:1;fill:#ffffff;fill-rule:nonzero;stroke:none;stroke-width:1;stroke-linecap:butt;stroke-linejoin:miter;stroke-miterlimit:4;stroke-dasharray:none;stroke-dashoffset:0"
   vector-effect="non-scaling-stroke"
   transform="translate(-7575,-5200)"
   d="m 7510,5200 v -290 h 65 65 v 290 290 h -65 -65 z"
   stroke-linecap="round"
   id="path14" />
</g>
		<g
   transform="matrix(0.13,0,0,-0.13,225.66,-0.2)"
   id="g16">
<path
   style="opacity:1;fill:#ffffff;fill-rule:nonzero;stroke:none;stroke-width:1;stroke-linecap:butt;stroke-linejoin:miter;stroke-miterlimit:4;stroke-dasharray:none;stroke-dashoffset:0"
   vector-effect="non-scaling-stroke"
   transform="translate(-7950,-5200)"
   d="m 7770,5200 v -290 h 180 180 v 60 60 h -120 -120 v 230 230 h -60 -60 z"
   stroke-linecap="round"
   id="path15" />
</g>
		<g
   transform="matrix(0.13,0,0,-0.13,295.33,-0.2)"
   id="g17">
<path
   style="opacity:1;fill:#ffffff;fill-rule:nonzero;stroke:none;stroke-width:1;stroke-linecap:butt;stroke-linejoin:miter;stroke-miterlimit:4;stroke-dasharray:none;stroke-dashoffset:0"
   vector-effect="non-scaling-stroke"
   transform="translate(-8472.57,-5200)"
   d="m 8210,5200 v -292 l 153,4 c 131,3 159,7 202,26 229,104 226,421 -4,526 -38,17 -71,21 -198,24 l -153,4 z m 310,151 c 105,-55 118,-216 22,-289 -31,-23 -46,-27 -119,-31 l -83,-3 v 171 171 h 73 c 51,0 82,-5 107,-19 z"
   stroke-linecap="round"
   id="path16" />
</g>
</g>
</g>
</svg>
