<?xml version="1.0" encoding="UTF-8"?> <svg xmlns="http://www.w3.org/2000/svg" width="23" height="24" viewBox="0 0 23 24" fill="none"><path d="M18.2563 4.91006C17.3777 3.98399 16.3312 3.24973 15.1778 2.75011C14.0244 2.25049 12.7872 1.99552 11.5383 2.00006C6.30585 2.00006 2.04127 6.45006 2.04127 11.9101C2.04127 13.6601 2.4821 15.3601 3.30627 16.8601L1.9646 22.0001L6.99585 20.6201C8.38543 21.4101 9.94752 21.8301 11.5383 21.8301C16.7709 21.8301 21.0354 17.3801 21.0354 11.9201C21.0354 9.27006 20.0484 6.78006 18.2563 4.91006ZM11.5383 20.1501C10.12 20.1501 8.73043 19.7501 7.51335 19.0001L7.22585 18.8201L4.23585 19.6401L5.03127 16.6001L4.8396 16.2901C4.05161 14.977 3.63319 13.4593 3.6321 11.9101C3.6321 7.37006 7.17793 3.67006 11.5288 3.67006C13.6371 3.67006 15.6209 4.53006 17.1063 6.09006C17.8418 6.85402 18.4246 7.76272 18.8211 8.76348C19.2176 9.76425 19.4197 10.8372 19.4159 11.9201C19.435 16.4601 15.8892 20.1501 11.5383 20.1501ZM15.87 13.9901C15.6304 13.8701 14.4613 13.2701 14.2504 13.1801C14.03 13.1001 13.8767 13.0601 13.7138 13.3001C13.5509 13.5501 13.1004 14.1101 12.9663 14.2701C12.8321 14.4401 12.6883 14.4601 12.4488 14.3301C12.2092 14.2101 11.4425 13.9401 10.5417 13.1001C9.83252 12.4401 9.36293 11.6301 9.21918 11.3801C9.08502 11.1301 9.20002 11.0001 9.3246 10.8701C9.43002 10.7601 9.56418 10.5801 9.67918 10.4401C9.79418 10.3001 9.8421 10.1901 9.91877 10.0301C9.99543 9.86006 9.9571 9.72006 9.8996 9.60006C9.8421 9.48006 9.36293 8.26006 9.17127 7.76006C8.9796 7.28006 8.77835 7.34006 8.6346 7.33006H8.1746C8.01168 7.33006 7.76252 7.39006 7.5421 7.64006C7.33127 7.89006 6.71793 8.49006 6.71793 9.71006C6.71793 10.9301 7.57085 12.1101 7.68585 12.2701C7.80085 12.4401 9.36293 14.9401 11.7396 16.0101C12.305 16.2701 12.7458 16.4201 13.0908 16.5301C13.6563 16.7201 14.1738 16.6901 14.5859 16.6301C15.0459 16.5601 15.9946 16.0301 16.1863 15.4501C16.3875 14.8701 16.3875 14.3801 16.3204 14.2701C16.2534 14.1601 16.1096 14.1101 15.87 13.9901Z" fill="#C97310"></path></svg> 