<?xml version="1.0" encoding="UTF-8"?> <svg xmlns="http://www.w3.org/2000/svg" xmlns:xlink="http://www.w3.org/1999/xlink" id="Layer_1" data-name="Layer 1" viewBox="0 0 237.68 39.11"> <defs> <style>.cls-1{fill:url(#linear-gradient);}.cls-2{fill:url(#linear-gradient-2);}.cls-3{fill:#272727;}</style> <linearGradient id="linear-gradient" x1="179.23" y1="212.09" x2="109.92" y2="288.2" gradientUnits="userSpaceOnUse"> <stop offset="0" stop-color="#d47f38"></stop> <stop offset="1" stop-color="#8c3e13"></stop> </linearGradient> <linearGradient id="linear-gradient-2" x1="193.26" y1="224.87" x2="123.94" y2="300.97" xlink:href="#linear-gradient"></linearGradient> </defs> <title>веб 6</title> <path class="cls-1" d="M179.18,223.82v19.49h-7.56v-12l-23.88,0v31.45h-7.57v-39Z" transform="translate(-140.17 -223.82)"></path> <path class="cls-2" d="M179.18,255.39v7.44a29.41,29.41,0,0,1-5.42,0c-.75-.08-1.47-.18-2.15-.3h0a19.35,19.35,0,0,1-4.18-1.32l0,0a19.4,19.4,0,0,1-4-2.39h0a19.61,19.61,0,0,1-3.38-3.37l-.1-.12,0,0h0a19.37,19.37,0,0,1-4-11.42v0c0-.13,0-.25,0-.38v-.05h7.51v.37h0a11.89,11.89,0,0,0,4,8.62l0,0a11.88,11.88,0,0,0,4.14,2.37h0a11.56,11.56,0,0,0,2.06.48,12.64,12.64,0,0,0,1.28.11C176.53,255.4,178.17,255.4,179.18,255.39Z" transform="translate(-140.17 -223.82)"></path> <path class="cls-3" d="M195.33,250.85V236.33h10c4.41,0,6.88,1.44,6.88,4.85a4.29,4.29,0,0,1-2.94,4.23l3.18,5.44h-4.91L204.73,246h-5v4.82Zm4.42-11.25v3.16h5.6c1.58,0,2.34-.34,2.34-1.58s-.76-1.58-2.34-1.58Z" transform="translate(-140.17 -223.82)"></path> <path class="cls-3" d="M231,241.9v3.27H220.53v2.41h11v3.27H216.11V236.33H231.4v3.27H220.53v2.3Z" transform="translate(-140.17 -223.82)"></path> <path class="cls-3" d="M235.21,242.28h11v3.28h-11Z" transform="translate(-140.17 -223.82)"></path> <path class="cls-3" d="M262.52,240.11a13.27,13.27,0,0,0-1.41-.43,15.42,15.42,0,0,0-3.73-.44c-2.33,0-3.24.25-3.24,1.11s1.22,1.15,3.56,1.47c5.6.77,7.68,1.94,7.68,4.76,0,3.21-2.89,4.63-8.21,4.63a19,19,0,0,1-6.05-.83,6.72,6.72,0,0,1-1.76-.83l2-2.73a8.79,8.79,0,0,0,1.51.56,15.2,15.2,0,0,0,4.12.55c2.4,0,4-.22,4-1.35,0-.74-1-1-4-1.4-5.11-.8-7.24-2.06-7.24-4.73S252,236,257.18,236a19.9,19.9,0,0,1,5.6.71,7.91,7.91,0,0,1,1.73.71Z" transform="translate(-140.17 -223.82)"></path> <path class="cls-3" d="M283.64,241.9v3.27H273.21v2.41h11v3.27H268.79V236.33h15.29v3.27H273.21v2.3Z" transform="translate(-140.17 -223.82)"></path> <path class="cls-3" d="M288.13,250.85V236.33h10.22c4.64,0,6.75,2,6.75,5.32S303,247,298.35,247h-5.8v3.88Zm4.42-11.25v4.1h5.8c1.49,0,2.23-.7,2.23-2s-.74-2-2.23-2Z" transform="translate(-140.17 -223.82)"></path> <path class="cls-3" d="M324.67,236.33v3.27h-6.11v11.25h-4.42V239.6H308v-3.27Z" transform="translate(-140.17 -223.82)"></path> <path class="cls-3" d="M332.49,250.85h-4.42V236.33h4.42Z" transform="translate(-140.17 -223.82)"></path> <path class="cls-3" d="M346.47,236c7,0,10.34,3.26,10.34,7.62s-3.38,7.62-10.34,7.62-10.34-3.26-10.34-7.62S339.51,236,346.47,236Zm0,3.27c-4.37,0-5.83,2-5.83,4.35s1.45,4.35,5.83,4.35,5.82-2,5.82-4.35S350.82,239.24,346.47,239.24Z" transform="translate(-140.17 -223.82)"></path> <path class="cls-3" d="M360.46,236.33h5.9l7.07,9.7v-9.7h4.42v14.53h-5.9l-7.07-9.7v9.7h-4.42Z" transform="translate(-140.17 -223.82)"></path> </svg> 